<svg enable-background="new 0 0 380.2 133.5" height="133.5" viewBox="0 0 380.2 133.5" width="380.2" xmlns="http://www.w3.org/2000/svg" xmlns:xlink="http://www.w3.org/1999/xlink"><filter id="a"><feGaussianBlur in="SourceAlpha" result="blur" stdDeviation="2"/><feOffset dx="1" dy="1" in="blur" result="offsetBlurredAlpha"/><feMerge><feMergeNode in="offsetBlurredAlpha"/><feMergeNode in="SourceGraphic"/></feMerge></filter><linearGradient id="b"><stop offset="0" stop-color="#fff"/><stop offset=".2617" stop-color="#fcfcfc"/><stop offset=".4806" stop-color="#f1f1f1"/><stop offset=".6842" stop-color="#e0e0e0"/><stop offset=".8772" stop-color="#c8c8c8"/><stop offset="1" stop-color="#b4b4b4"/></linearGradient><linearGradient id="c" gradientUnits="userSpaceOnUse" x1="33.0298" x2="33.0298" xlink:href="#b" y1="77.4023" y2="7.5991"/><linearGradient id="d" gradientUnits="userSpaceOnUse" x1="84.8926" x2="84.8926" xlink:href="#b" y1="87.625" y2="6.2505"/><linearGradient id="e" gradientUnits="userSpaceOnUse" x1="139.5264" x2="139.5264" xlink:href="#b" y1="77.4023" y2="7.5991"/><linearGradient id="f" gradientUnits="userSpaceOnUse" x1="196.7876" x2="196.7876" xlink:href="#b" y1="76.1973" y2="8.8037"/><linearGradient id="g" gradientUnits="userSpaceOnUse" x1="249.4434" x2="249.4434" xlink:href="#b" y1="77.4023" y2="7.5991"/><linearGradient id="h" gradientUnits="userSpaceOnUse" x1="284.1885" x2="284.1885" xlink:href="#b" y1="77.4023" y2="7.5991"/><linearGradient id="i" gradientUnits="userSpaceOnUse" x1="314.4502" x2="314.4502" xlink:href="#b" y1="78.5586" y2="25.2358"/><linearGradient id="j" gradientUnits="userSpaceOnUse" x1="354.5889" x2="354.5889" xlink:href="#b" y1="78.5586" y2="24.0796"/><g filter="url(#a)"><path d="m12.1 77.4v-69.8h40.8v14.1h-23.6v12.8h22.2v14.1h-22.2v14.7h24.7v14.1z" fill="url(#c)"/><path d="m52.4 8.1v13.1h-23.6v13.8h22.2v13.1h-22.2v15.7h24.7v13.1h-40.9v-68.8zm1-1h-1-39.8-1v1 68.8 1h1 40.9 1v-1-13.1-1h-1-23.7v-13.7h21.2 1v-1-13.1-1h-1-21.2v-11.8h22.6 1v-1-13.1z" fill="#4d4d4d"/><path d="m51 9.5v10.3h-22.2-1.4v1.4 13.8 1.4h1.4 20.7v10.3h-20.7-1.4v1.4 15.7 1.4h1.4 23.2v10.3h-38v-66zm1.4-1.4h-39.8v68.8h40.9v-13.1h-24.7v-15.7h22.2v-13.1h-22.2v-13.8h23.6z" fill="#fff"/><path d="m91.6 77.8c-.6.1-1.1.2-1.8.3-.5.1-1 .2-1.6.3-1.5.2-3.1.3-4.7.3-22.8 0-24.7-16.4-24.7-36.3s1.8-36.2 24.6-36.2 24.7 16.4 24.7 36.3c0 10.7-.4 20.8-5 27.7l7.9 8.1-10.2 9.3zm-8.3-59.8c-5.9 0-6.8 5.5-6.8 24.5s.9 24.5 6.8 24.5c6.1 0 7-5.8 7-24.5.1-18.7-.9-24.5-7-24.5z" fill="url(#d)"/><path d="m83.4 6.7c22.8 0 24.2 16.7 24.2 35.8 0 10.9-.4 21-5.1 27.8l7.8 8-9.4 8.7-9.2-9.6c-1.1.3-2.2.4-3.7.7-1.4.2-3 .3-4.6.3-21.3 0-24.2-13.9-24.2-35.8 0-22 2.9-35.9 24.2-35.9m-.1 60.8c6.6 0 7.5-6.1 7.5-25s-1-25-7.5-25-7.3 6.1-7.3 25 .9 25 7.3 25m.1-61.7c-23.3 0-25.2 16.6-25.2 36.7s1.9 36.7 25.2 36.7c1.7 0 3.3-.1 4.8-.3.6-.1 1.1-.2 1.6-.3s1-.2 1.5-.3l8.8 9.2.7.7.7-.7 9.5-8.5.8-.7-.7-.7-7.2-7.4c4.4-7 4.8-17 4.8-27.6-.1-20.2-2-36.8-25.3-36.8zm-.1 60.7c-5.2 0-6.3-4.3-6.3-24s1.1-24 6.3-24c5.3 0 6.5 4.5 6.5 24 .1 19.5-1.2 24-6.5 24z" fill="#4d4d4d"/><path d="m83.4 8.2c9.9 0 16.1 3.2 19.4 9.9 3.1 6.4 3.4 15.6 3.4 24.4 0 10.5-.4 20.5-4.9 26.9l-.7 1 .8.8 6.8 7-7.3 6.7-8.2-8.6-.6-.6-.8.2c-.5.1-1.1.2-1.8.4-.5.1-1.1.2-1.7.3-1.4.2-2.8.3-4.4.3-9.5 0-15.5-2.8-18.8-8.9-3.5-6.3-3.9-16-3.9-25.4s.5-19.1 3.9-25.4c3.3-6.2 9.3-9 18.8-9m-.1 60.7c8.1 0 8.9-7.6 8.9-26.4 0-18.7-.8-26.4-8.9-26.4-8.4 0-8.7 9-8.7 26.4 0 17.3.4 26.4 8.7 26.4m.1-62.2c-21.3 0-24.2 13.9-24.2 35.8s2.9 35.8 24.2 35.8c1.6 0 3.2-.1 4.6-.3 1.4-.3 2.6-.4 3.7-.7l9.2 9.6 9.4-8.7-7.8-8c4.7-6.7 5.1-16.9 5.1-27.8 0-19-1.3-35.7-24.2-35.7zm-.1 60.8c-6.5 0-7.3-6.1-7.3-25s.9-25 7.3-25c6.6 0 7.5 6.1 7.5 25 .1 18.9-.9 25-7.5 25z" fill="#fff"/><path d="m115.6 77.4v-69.8h24.5c16.8 0 23.3 9.2 23.3 32.7 0 25.7-3.6 37.1-25 37.1zm21-12.9c6.7 0 9.6-2.2 9.6-23.1 0-17.3-1.6-20.8-9.4-20.8h-4v43.9z" fill="url(#e)"/><path d="m140.1 8.1c16 0 22.8 8.3 22.8 32.2 0 25-3.2 36.6-24.5 36.6h-22.4v-68.8zm-7.8 56.9h4.3c7.4 0 10.1-3 10.1-23.6 0-16.8-1.3-21.3-9.9-21.3h-4.5zm7.8-57.9h-24-1v1 68.8 1h1 22.4c10.8 0 17.3-2.9 21.1-9.4 3.6-6.4 4.4-15.9 4.4-28.2-.1-23.9-6.7-33.2-23.9-33.2zm-6.8 13.9h3.5c7.5 0 8.9 3.2 8.9 20.3 0 20.6-2.6 22.6-9.1 22.6h-3.3z" fill="#4d4d4d"/><path d="m140.1 9.5c13.2 0 21.4 5.1 21.4 30.8 0 11.9-.7 21.1-4.1 27-3.3 5.7-9.1 8.2-19 8.2h-20.9v-66zm-9.2 56.9h1.4 4.3c9.2 0 11.5-5.1 11.5-25 0-16.1-1-22.7-11.3-22.7h-4.5-1.4v1.3 45zm9.2-58.3h-24v68.8h22.4c21.3 0 24.5-11.7 24.5-36.6-.1-23.9-6.9-32.2-22.9-32.2zm-7.8 56.9v-45h4.5c8.6 0 9.9 4.5 9.9 21.3 0 20.6-2.7 23.6-10.1 23.6h-4.3z" fill="#fff"/><path d="m204.8 76.2-12.8-26.7-5.1 7.9v18.8h-14.8v-67.4h14.8v27.2h1.3l15.2-27.2h15.7l-17.5 29 19.8 38.4z" fill="url(#f)"/><path d="m217.9 9.5-16.7 27.5-.4.7.4.7 19.2 37.1h-15l-12-25.1-1.1-2.3-1.4 2.1-4.3 6.6-.2.4v.4 17.9h-13.4v-66h13.4v25.8 1.4h1.4.2.8l.2-.7 14.7-26.4h14.2m2.5-1.5h-17.4l-15.1 27.2h-.2v-27.2h-16.2v68.8h16.2v-19.3l4.3-6.6 12.4 25.9h18.2l-20.2-39.1z" fill="#fff"/><path d="m220.4 8.1-18 29.7 20.2 39.1h-18.2l-12.4-25.9-4.3 6.6v19.3h-16.2v-68.8h16.2v27.2h.2l15.1-27.2zm1.7-1h-1.8-17.4-.6l-.3.5-13.5 24.2v-23.7-1h-1-16.2-1v1 68.8 1h1 16.2 1v-1-19l3.2-4.9 11.7 24.3.3.6h.6 18.2 1.6l-.7-1.4-20-38.6 17.7-29.2z" fill="#4d4d4d"/><path d="m226.3 77.4v-69.8h25.6c18.8 0 20.8 15 20.8 21.4 0 14.3-7.6 21.5-22.6 21.5h-6.6v26.9zm21.1-39.8c5.1 0 7.5-2.6 7.5-8.2 0-6.1-2.4-8.9-7.8-8.9h-3.6v17h3.9z" fill="url(#g)"/><path d="m251.8 8.1c17.1 0 20.3 12.3 20.3 20.9 0 12.3-5.9 21-22.1 21h-7.1v26.9h-16.2v-68.8zm-8.9 30h4.4c6.5 0 8-4 8-8.7 0-5.3-1.7-9.3-8.3-9.3h-4.1zm8.9-31h-25.1-1v1 68.8 1h1 16.2 1v-1-25.9h6.1c15.1 0 23.1-7.6 23.1-22 0-6.6-2-21.9-21.3-21.9zm-7.9 13.9h3.2c5.1 0 7.3 2.5 7.3 8.4 0 5.3-2.2 7.7-7 7.7h-3.4v-16.1z" fill="#4d4d4d"/><path d="m251.8 9.5c16.5 0 18.9 12.2 18.9 19.5 0 13.2-6.8 19.6-20.7 19.6h-7.1-1.4v1.4 25.5h-13.4v-66zm-10.3 30h1.4 4.4c6.2 0 9.4-3.4 9.4-10.1 0-7.1-3.3-10.8-9.7-10.8h-4.1-1.4v1.4 18zm10.3-31.4h-25.1v68.8h16.2v-26.9h7.1c16.2 0 22.1-8.7 22.1-21 0-8.6-3.2-20.9-20.3-20.9zm-8.9 30v-18.1h4.1c6.6 0 8.3 4 8.3 9.3 0 4.6-1.5 8.7-8 8.7h-4.4z" fill="#fff"/><path d="m280.8 7.6h6.8v69.8h-6.8z" fill="url(#h)"/><path d="m287.1 8.1v68.8h-5.8v-68.8zm1-1h-1-5.8-1v1 68.8 1h1 5.8 1v-1-68.8z" fill="#4d4d4d"/><path d="m285.7 9.5v66h-2.9v-66zm1.4-1.4h-5.8v68.8h5.8z" fill="#fff"/><path d="m311.8 78.6c-8.8 0-13.6-5-13.6-14.2v-39.2h6.8v36.5c0 7.9 2.3 11 8.4 11 6.4 0 10.7-5.1 10.7-12.6v-34.9h6.8v52.2h-6.2v-6.1c-3.1 4.7-7.5 7.3-12.9 7.3z" fill="url(#i)"/><path d="m330.3 25.7v51.2h-5.2v-7.1h-.2c-3 5.8-7.8 8.3-13.1 8.3-7.8 0-13.1-4-13.1-13.7v-38.7h5.8v36c0 8.4 2.7 11.5 8.9 11.5 6.6 0 11.2-5.1 11.2-13.1v-34.4zm.9-1h-1-5.8-1v1 34.4c0 7.2-4.1 12.1-10.2 12.1-4.9 0-7.9-1.8-7.9-10.5v-36-1h-1-5.8-1v1 38.6c0 9.5 5 14.7 14.1 14.7 5 0 9.3-2.2 12.3-6.1v4 1h1 5.2 1v-1-51.2-1z" fill="#4d4d4d"/><path d="m328.8 27.1v48.3h-2.4v-5.7-1.4h-1.4-.2-.8c1.2-2.3 1.9-5.1 1.9-8.2v-33zm-25.8 0v34.6c0 8.9 3.2 12.9 10.3 12.9 4.8 0 8.5-2.3 10.7-6.2l-.4.7c-2.5 4.9-6.6 7.5-11.8 7.5-7.8 0-11.7-4.1-11.7-12.3v-37.2zm27.3-1.4h-5.8v34.4c0 8-4.6 13.1-11.2 13.1-6.2 0-8.9-3.1-8.9-11.5v-36h-5.8v38.6c0 9.6 5.3 13.7 13.1 13.7 5.3 0 10.1-2.5 13.1-8.3h.2v7.1h5.2v-51.1z" fill="#fff"/><path d="m354.5 78.6c-11.2 0-16.2-5.1-16.2-16.4v-2.2h6.8v1.8c0 7.3 3.1 10.9 9.3 10.9 6 0 9.6-3.2 9.6-8.7 0-4.5-1.9-7.1-6.6-9l-8.1-3.2c-6.8-2.6-10.1-6.7-10.1-12.6 0-9.8 5.6-15.2 15.7-15.2 9.7 0 14.6 5 14.6 14.8v1.9h-6.8v-1.9c0-6.1-2.5-8.9-7.9-8.9-6 0-8.9 2.7-8.9 8.2 0 3.4 1.1 6 6.6 8.1l8.4 3.2c6.5 2.5 9.9 7 9.9 13.5 0 9.8-6.1 15.7-16.3 15.7z" fill="url(#j)"/><path d="m354.9 24.6c9.6 0 14.1 4.9 14.1 14.3v1.4h-5.8v-1.4c0-6.6-3-9.4-8.4-9.4-6.8 0-9.3 3.6-9.3 8.7 0 3.6 1.2 6.4 6.9 8.6l8.4 3.2c6.9 2.6 9.5 7.3 9.5 13 0 8.8-5 15.2-15.8 15.2-10.5 0-15.7-4.3-15.7-15.9v-1.6h5.8v1.3c0 7.6 3.3 11.4 9.8 11.4 6.2 0 10.1-3.4 10.1-9.2 0-4.5-1.8-7.4-6.9-9.4l-8.1-3.2c-7.3-2.8-9.8-7-9.8-12.1 0-10.7 6.5-14.9 15.2-14.9m0-1c-10.3 0-16.2 5.7-16.2 15.7 0 6.1 3.4 10.4 10.5 13.1l8.1 3.2c4.5 1.8 6.3 4.2 6.3 8.5 0 5.1-3.4 8.2-9.1 8.2-6 0-8.8-3.3-8.8-10.4v-1.3-1h-1-5.8-1v1 1.6c0 11.7 5.2 16.9 16.7 16.9 10.5 0 16.8-6.1 16.8-16.2 0-6.7-3.4-11.4-10.2-13.9l-8.4-3.2c-5.3-2-6.3-4.3-6.3-7.6 0-5.2 2.7-7.7 8.4-7.7 5.1 0 7.4 2.6 7.4 8.5v1.4 1h1 5.8 1v-1-1.4c-.1-10.3-5.2-15.4-15.2-15.4z" fill="#4d4d4d"/><path d="m354.9 26c8.6 0 12.7 4.1 12.7 12.8h-2.9c0-9-5.3-10.9-9.8-10.9-6.9 0-10.8 3.6-10.8 10.1 0 4.9 2.3 7.8 7.9 9.9l8.4 3.2c5.8 2.2 8.6 6 8.6 11.7 0 8.8-5.2 13.8-14.4 13.8-10.2 0-14.3-4.2-14.3-14.5v-.2h2.9c0 10.5 6.1 12.7 11.2 12.7 7 0 11.5-4.1 11.5-10.6 0-5.3-2.4-8.6-7.8-10.8l-8.1-3.2c-6.1-2.3-8.9-5.8-8.9-10.8 0-10.9 7.5-13.2 13.8-13.2m0-1.4c-8.8 0-15.2 4.2-15.2 14.7 0 5.1 2.5 9.3 9.8 12.1l8.1 3.2c5.1 2 6.9 4.9 6.9 9.4 0 5.8-4 9.2-10.1 9.2-6.6 0-9.8-3.8-9.8-11.4v-1.3h-5.8v1.6c0 11.6 5.2 15.9 15.7 15.9 10.8 0 15.8-6.5 15.8-15.2 0-5.7-2.6-10.4-9.5-13l-8.4-3.2c-5.8-2.2-6.9-5-6.9-8.6 0-5.1 2.5-8.7 9.3-8.7 5.4 0 8.4 2.8 8.4 9.4v1.4h5.8v-1.4c0-9.2-4.4-14.1-14.1-14.1z" fill="#fff"/></g><path d="m15.7 126.7v-19.9h-5.5v-2.7h14v2.7h-5.5v19.9z" fill="#fff"/><path d="m23.7 104.6v1.6h-5.5v19.9h-1.9v-19.9h-5.5v-1.6zm1-1h-1-13-1v1 1.6 1h1 4.6v18.9 1h1 1.9 1v-1-18.9h4.6 1v-1-1.6-1z" fill="#4d4d4d"/><path d="m35.4 126.7v-10.8h-7.4v10.8h-2.9v-22.6h2.9v9.2h7.4v-9.2h2.9v22.6z" fill="#fff"/><path d="m37.8 104.6v21.5h-1.9v-10.7h-8.4v10.7h-1.9v-21.5h1.9v9.2h8.4v-9.2zm1-1h-1-1.9-1v1 8.2h-6.4v-8.2-1h-1-1.9-1v1 21.5 1h1 1.9 1v-1-9.7h6.4v9.7 1h1 1.9 1v-1-21.5z" fill="#4d4d4d"/><path d="m40.7 126.7v-22.6h11.7v2.7h-8.8v6.8h8.2v2.6h-8.2v7.8h9.1v2.7z" fill="#fff"/><path d="m51.9 104.6v1.6h-8.7v7.8h8.2v1.6h-8.2v8.8h9v1.6h-11v-21.5h10.7m1-.9h-1-10.7-1v1 21.5 1h1 10.9 1v-1-1.6-1h-1-8v-6.8h7.2 1v-1-1.6-1h-1-7.2v-5.9h7.7 1v-1-1.6-1z" fill="#4d4d4d"/><path d="m68.5 127c-4.9 0-7.4-3.9-7.4-11.6s2.5-11.6 7.4-11.6c4 0 6.4 2.4 6.7 6.9v.5h-3v-.5c0-2-1-4.3-3.8-4.3-1.9 0-4.4.9-4.4 9s2.5 9 4.4 9c3.3 0 4-3.8 4-7.1h-5.1v-2.6h7.9v12h-2.5v-2c-.9 1.4-2.4 2.3-4.2 2.3z" fill="#fff"/><path d="m68.5 104.3c4.1 0 5.9 2.7 6.2 6.4h-1.9c0-2.6-1.4-4.8-4.2-4.8-3 0-4.9 2.5-4.9 9.5s1.9 9.5 4.9 9.5c2.9 0 4.5-2.6 4.5-7.6v-.5h-5.1v-1.6h6.9v11h-1.5v-3.6h-.1c-.7 2.4-2.6 3.9-4.7 3.9-4.4 0-6.9-3.4-6.9-11.1s2.4-11.1 6.8-11.1m0-1c-5.2 0-7.9 4.1-7.9 12.1s2.6 12.1 7.9 12.1c1.4 0 2.8-.5 3.8-1.5v.1 1h1 1.5 1v-1-11-1h-1-6.9-1v1 1.6 1h1 4.1c-.1 4-1.3 6.1-3.5 6.1-1.1 0-4 0-4-8.5s2.9-8.5 4-8.5c2.4 0 3.3 1.9 3.3 3.8v1h1 1.9 1.1l-.1-1.1c-.3-4.5-2.9-7.2-7.2-7.2z" fill="#4d4d4d"/><path d="m89 126.7-1.7-6.3h-6.8l-1.7 6.3h-3.1l6.7-22.5h3.2l6.7 22.5zm-2.5-8.9-2.7-9.8-2.7 9.8z" fill="#fff"/><path d="m85.1 104.6 6.4 21.5h-2l-1.7-6.3h-7.5l-1.7 6.3h-2l6.4-21.5zm-4.6 13.7h6.7l-3.3-12.1h-.1zm5.3-14.7h-.7-2.4-.7l-.2.7-6.4 21.5-.4 1.3h1.3 2 .8l.2-.7 1.5-5.5h6l1.5 5.5.2.7h.8 2 1.3l-.4-1.3-6.2-21.4zm-4 13.7 2-7.5 2 7.5z" fill="#4d4d4d"/><path d="m107.8 126.7v-16.9l-4.8 16.9h-2.6l-4.7-16.9v16.9h-2.9v-22.6h4.2l4.8 17.9 4.8-17.9h4.1v22.6z" fill="#fff"/><path d="m110.2 104.6v21.5h-1.9v-19.7h-.1l-5.6 19.7h-1.8l-5.6-19.7h-.1v19.7h-1.9v-21.5h3.3l5.2 19.1h.1l5.2-19.1zm1-1h-1-3.2-.8l-.2.7-4.3 15.7-4.3-15.7-.2-.7h-.8-3.3-1v1 21.5 1h1 1.9 1v-1-12.8l3.7 13 .2.7h.8 1.8.8l.2-.7 3.7-13v12.8 1h1 1.9 1v-1-21.5-1z" fill="#4d4d4d"/><path d="m113.2 126.7v-22.6h11.7v2.7h-8.7v6.8h8.1v2.6h-8.1v7.8h9v2.7z" fill="#fff"/><path d="m124.4 104.6v1.6h-8.7v7.8h8.2v1.6h-8.2v8.8h9v1.6h-10.9v-21.5h10.6m1-.9h-1-10.7-1v1 21.5 1h1 10.9 1v-1-1.6-1h-1-8v-6.8h7.2 1v-1-1.6-1h-1-7.2v-5.9h7.7 1v-1-1.6-1z" fill="#4d4d4d"/><path d="m137.3 126.7-.1-.2c-.5-.8-.6-1.9-.6-3.3l-.1-1.8c-.2-3.8-.8-4.5-3.8-4.5h-3.2v9.8h-2.9v-22.5h6.9c3.8 0 6.1 2.2 6.1 5.9 0 2.6-.9 4.5-2.7 5.4 2.1.9 2.4 3 2.5 5.2l.1 2.4c0 1.2.2 2.2.8 2.8l.7.8zm-4.9-12.5c2.9 0 4.3-1.3 4.3-3.7 0-2.6-1.2-3.7-4.1-3.7h-3v7.4z" fill="#fff"/><path d="m133.5 104.6c3.6 0 5.6 2 5.6 5.4 0 2.6-1 4.9-3.9 5.5v.1c2.7.2 3.6 1.7 3.7 5.1l.1 2.4c0 1.2.2 2.3.9 3.2h-2.3c-.5-.8-.5-1.8-.6-3l-.1-1.8c-.2-3.8-.8-5-4.3-5h-3.6v9.8h-1.9v-21.5h6.4m-4.5 9.9h3.3c3 0 4.8-1.4 4.8-4.2 0-2.7-1.1-4.2-4.6-4.2h-3.5zm4.5-11.1h-6.4-1v1 21.5 1h1 1.9 1v-1-8.8h2.7c2.7 0 3.1.5 3.3 4l.1 1.8c0 1.2.1 2.5.7 3.5l.3.5h.6 2.3 2.2l-1.5-1.7c-.5-.6-.6-1.4-.7-2.5l-.1-2.4c-.1-2-.4-4.1-2-5.2 1.4-1.1 2.2-3 2.2-5.4 0-3.9-2.4-6.3-6.6-6.3zm-3.5 3.7h2.5c3 0 3.6 1.2 3.6 3.2 0 1.4-.4 3.2-3.8 3.2h-2.3z" fill="#4d4d4d"/><path d="m156.1 127c-4.9 0-7.4-3.9-7.4-11.6s2.5-11.6 7.4-11.6 6.7 3.7 6.7 7.1v.5h-2.9v-.5c0-2.8-1.4-4.5-3.8-4.5-1.9 0-4.4.9-4.4 9s2.5 9 4.4 9c3.2 0 3.8-3.5 4-5.6v-.5h2.9v.5c-.3 5.3-2.7 8.2-6.9 8.2z" fill="#fff"/><path d="m156.1 104.3c4.4 0 6.2 3.1 6.2 6.6h-1.9c0-2.9-1.5-5-4.2-5-3 0-4.9 2.5-4.9 9.5s1.9 9.5 4.9 9.5c2.7 0 4.2-2.3 4.5-6h1.9c-.3 4.9-2.5 7.7-6.4 7.7-4.4 0-6.9-3.4-6.9-11.1s2.4-11.2 6.8-11.2m0-1c-5.2 0-7.9 4.1-7.9 12.1s2.6 12.1 7.9 12.1c4.4 0 7.1-3.1 7.4-8.6l.1-1h-1-1.9-.9l-.1.9c-.1 2.3-.8 5.1-3.5 5.1-1.1 0-4 0-4-8.5s2.9-8.5 4-8.5c2.9 0 3.3 2.8 3.3 4v1h1 1.9 1v-1c-.1-4.7-2.9-7.6-7.3-7.6z" fill="#4d4d4d"/><path d="m179.8 126.7v-16.9l-4.8 16.9h-2.6l-4.7-16.9v16.9h-3v-22.6h4.3l4.8 17.9 4.8-17.9h4.1v22.6z" fill="#fff"/><path d="m182.2 104.6v21.5h-1.9v-19.7h-.1l-5.6 19.7h-1.8l-5.6-19.7h-.1v19.7h-1.9v-21.5h3.3l5.2 19.1h.1l5.2-19.1zm1-1h-1-3.2-.8l-.2.7-4.3 15.7-4.3-15.7-.2-.7h-.8-3.3-1v1 21.5 1h1 1.9 1v-1-12.8l3.7 13 .2.7h.8 1.8.8l.2-.7 3.7-13v12.8 1h1 1.9 1v-1-21.5-1z" fill="#4d4d4d"/><path d="m191.2 127c-4.4 0-6.8-2.4-6.8-6.9v-1.1h2.9v1.3c0 2.6 1.3 4.1 3.8 4.1 1.9 0 4.1-.7 4.1-3.9 0-2.7-2.1-3.4-4.5-4.2-2.8-.9-5.9-1.9-5.9-6.4 0-3.8 2.5-6.2 6.4-6.2 4.2 0 6.3 2.1 6.3 6.4v.5h-2.9v-.5c0-2.5-1.1-3.8-3.4-3.8-2.2 0-3.6 1.3-3.6 3.4 0 2.7 2.1 3.4 4.6 4.2 2.8.9 5.9 2 5.9 6.2.1 4.4-2.6 6.9-6.9 6.9z" fill="#fff"/><path d="m191.2 104.3c4 0 5.8 2 5.8 5.9h-1.9c0-2.7-1.2-4.2-3.9-4.2-2.6 0-4.1 1.7-4.1 3.9 0 6.4 10.4 2.9 10.4 10.5 0 4.2-2.6 6.3-6.5 6.3-4.1 0-6.3-2.1-6.3-6.4v-.6h1.9v.8c0 2.8 1.4 4.6 4.3 4.6 2.7 0 4.6-1.4 4.6-4.4 0-6.4-10.4-2.7-10.4-10.5.2-3.6 2.4-5.9 6.1-5.9m0-1c-4.1 0-6.9 2.7-6.9 6.7 0 4.8 3.5 5.9 6.3 6.9 2.6.9 4.1 1.5 4.1 3.7s-1.2 3.4-3.6 3.4c-2.2 0-3.3-1.2-3.3-3.6v-.8-1h-1-1.9-1v1 .6c0 4.8 2.6 7.4 7.3 7.4s7.5-2.7 7.5-7.3-3.4-5.8-6.2-6.7c-2.7-.9-4.2-1.5-4.2-3.8 0-1.4.8-2.9 3.1-2.9 1.3 0 2.9.4 2.9 3.3v1h1 1.9 1v-1c-.1-4.5-2.5-6.9-7-6.9z" fill="#4d4d4d"/><path d="m212.4 127c-3.8 0-6.5-2.6-6.5-6.2 0-2.3 1-4.2 3.3-5.9l1.4-1.1c-1.4-2-2.3-3.5-2.3-5.2 0-2.7 2-4.5 4.9-4.5 2.8 0 4.6 1.8 4.6 4.5 0 2.1-1.1 3.8-3.6 5.7l3.8 5.3c.3-.9.4-1.9.4-3v-.5h2.8v.5c0 1.8-.5 3.8-1.4 5.5l3.2 4.5h-3.3l-1.6-2.3c-1.3 1.8-3.3 2.7-5.7 2.7zm-.3-11.2c-2.9 2.1-3.2 3.6-3.2 4.8 0 2.2 1.7 3.8 3.9 3.8 1.5 0 3.1-.9 3.9-2.2zm1-9.2c-1.2 0-2 .8-2 1.9 0 .9.5 2.1 1.6 3.7 2-1.6 2.3-2.9 2.3-3.7 0-1.1-.8-1.9-1.9-1.9z" fill="#fff"/><path d="m213.2 104.6c2.5 0 4.1 1.6 4.1 4 0 1.7-.8 3.4-3.8 5.5l4.6 6.5c.6-1.3.8-2.7.8-4.1h1.8c0 1.9-.5 3.9-1.5 5.6l2.8 4h-2l-1.9-2.6c-1.2 1.8-3.1 3-5.7 3-3.7 0-6-2.6-6-5.7 0-2.3 1.1-4 3.1-5.5l1.8-1.4c-1.5-2-2.5-3.6-2.5-5.3 0-2.6 2-4 4.4-4m-.6 8.3c2.4-1.7 2.9-3.2 2.9-4.4 0-1.4-1-2.4-2.4-2.4s-2.5 1-2.5 2.4c0 1.2.8 2.8 2 4.4m.1 12c1.7 0 3.6-1.1 4.5-2.7l-5-7.1c-3 2.1-3.9 3.8-3.9 5.5 0 2.6 2 4.3 4.4 4.3m.5-21.3c-3.2 0-5.4 2-5.4 5 0 1.7.8 3.3 2.1 5.1l-1 .8c-2.4 1.9-3.5 3.9-3.5 6.3 0 3.9 3 6.7 7 6.7 2.3 0 4.2-.8 5.7-2.3l1.1 1.6.3.4h.5 2 1.9l-1.1-1.6-2.5-3.5c.9-1.7 1.3-3.7 1.3-5.5v-1h-1-1.6-1v1c0 .7-.1 1.3-.2 1.9l-2.9-4.1c2.4-1.9 3.4-3.6 3.4-5.8 0-3-2-5-5.1-5zm-.4 7.9c-1-1.5-1.2-2.4-1.2-2.9 0-.8.6-1.4 1.5-1.4s1.4.6 1.4 1.4c0 .6-.2 1.6-1.7 2.9zm-.1 12.4c-2 0-3.4-1.4-3.4-3.3 0-1 .3-2.3 2.6-4.1l4.1 5.7c-.7 1-2.1 1.7-3.3 1.7z" fill="#4d4d4d"/><path d="m230.3 126.7v-22.5h5.7c6.9 0 8.3 4.5 8.3 11.3s-1.4 11.3-8.3 11.3h-5.7zm5.6-2.7c3.6 0 5.5-1.4 5.5-8.6 0-7.3-1.9-8.7-5.5-8.7h-2.6v17.3z" fill="#fff"/><path d="m236 104.6c6.3 0 7.8 3.7 7.8 10.8s-1.5 10.8-7.8 10.8h-5.2v-21.5h5.2m-3.2 19.8h3.1c4.2 0 6-2.1 6-9.1 0-7.1-1.8-9.2-6-9.2h-3.1zm3.2-20.9h-5.2-1v1 21.5 1h1 5.2c7.7 0 8.8-5.6 8.8-11.8s-1-11.7-8.8-11.7zm-2.2 3.7h2.1c3.3 0 5 1.3 5 8.2s-1.7 8.1-5 8.1h-2.1z" fill="#4d4d4d"/><path d="m257.7 126.7-6.2-10.6-2.1 2.7v7.9h-2.9v-22.6h2.9v10.4l7.6-10.4h3.3l-7 9.6 7.6 13z" fill="#fff"/><path d="m259.3 104.6-6.6 9 7.3 12.5h-2l-6.4-10.9-2.6 3.4v7.5h-2v-21.5h1.9v11.3h.1l8.2-11.3zm1.9-1h-2-2-.5l-.3.4-6.5 8.9v-8.3-1h-1-1.9-1v1 21.5 1h1 1.9 1v-1-7.1l1.5-1.9 5.7 9.6.3.5h.6 2 1.7l-.9-1.5-7-12 6.2-8.5z" fill="#4d4d4d"/><path d="m261 126.7v-22.5h6.3c4.1 0 6.4 2.3 6.4 6.6s-2.5 6.6-7.1 6.6h-2.7v9.3zm5.7-12c2.7 0 4.1-1.3 4.1-4 0-2.8-1.2-4-4.1-4h-2.8v7.9h2.8z" fill="#fff"/><path d="m267.3 104.6c4.1 0 5.9 2.4 5.9 6.1 0 3.3-1.6 6.1-6.6 6.1h-3.2v9.3h-1.9v-21.5zm-3.9 10.6h3.3c2.5 0 4.6-1.1 4.6-4.5 0-3.3-1.6-4.5-4.6-4.5h-3.3zm3.9-11.6h-5.8-1v1 21.5 1h1 1.9 1v-1-8.3h2.2c4.8 0 7.6-2.6 7.6-7.1s-2.5-7.1-6.9-7.1zm-2.9 3.7h2.3c2.6 0 3.6.9 3.6 3.5 0 1.5-.4 3.5-3.6 3.5h-2.3z" fill="#4d4d4d"/><path d="m288.6 127c-4.4 0-6.8-2.4-6.8-6.9v-1.1h2.9v1.3c0 2.6 1.3 4.1 3.8 4.1 1.9 0 4.1-.7 4.1-3.9 0-2.7-2.1-3.4-4.5-4.2-2.8-.9-5.9-1.9-5.9-6.4 0-3.8 2.5-6.2 6.4-6.2 4.2 0 6.3 2.1 6.3 6.4v.5h-2.9v-.5c0-2.5-1.1-3.8-3.4-3.8-2.2 0-3.6 1.3-3.6 3.4 0 2.7 2.1 3.4 4.6 4.2 2.8.9 5.9 2 5.9 6.2.1 4.4-2.5 6.9-6.9 6.9z" fill="#fff"/><path d="m288.7 104.3c4 0 5.8 2 5.8 5.9h-1.9c0-2.7-1.2-4.2-3.9-4.2-2.6 0-4.1 1.7-4.1 3.9 0 6.4 10.4 2.9 10.4 10.5 0 4.2-2.6 6.3-6.5 6.3-4.1 0-6.3-2.1-6.3-6.4v-.6h1.9v.8c0 2.8 1.4 4.6 4.3 4.6 2.7 0 4.6-1.4 4.6-4.4 0-6.4-10.4-2.7-10.4-10.5.2-3.6 2.4-5.9 6.1-5.9m0-1c-4.1 0-6.9 2.7-6.9 6.7 0 4.8 3.5 5.9 6.3 6.9 2.6.9 4.1 1.5 4.1 3.7s-1.2 3.4-3.6 3.4c-2.2 0-3.3-1.2-3.3-3.6v-.8-1h-1-1.9-1v1 .6c0 4.8 2.6 7.4 7.3 7.4s7.5-2.7 7.5-7.3-3.4-5.8-6.2-6.7c-2.7-.9-4.2-1.5-4.2-3.8 0-1.4.8-2.9 3.1-2.9 1.3 0 2.9.4 2.9 3.3v1h1 1.9 1v-1c-.2-4.5-2.5-6.9-7-6.9z" fill="#4d4d4d"/><path d="m301.2 126.7v-9.1l-6.1-13.5h3.1l4.4 10 4.5-10h3.1l-6.1 13.5v9.1z" fill="#fff"/><path d="m309.4 104.6-5.8 12.9v8.6h-1.9v-8.6l-5.8-12.9h2l4.7 10.7 4.7-10.7zm1.6-1h-1.5-2-.6l-.3.6-3.8 8.7-3.8-8.7-.3-.6h-.6-2-1.5l.6 1.4 5.7 12.7v8.4 1h1 1.9 1v-1-8.4l5.7-12.7z" fill="#4d4d4d"/><path d="m316.4 127c-4.4 0-6.8-2.4-6.8-6.9v-1.1h2.9v1.3c0 2.6 1.3 4.1 3.8 4.1 1.9 0 4.1-.7 4.1-3.9 0-2.7-2.1-3.4-4.5-4.2-2.8-.9-5.9-1.9-5.9-6.4 0-3.8 2.5-6.2 6.4-6.2 4.2 0 6.3 2.1 6.3 6.4v.5h-2.7v-.5c0-2.5-1.1-3.8-3.4-3.8-2.2 0-3.6 1.3-3.6 3.4 0 2.7 2.1 3.4 4.6 4.2 2.8.9 5.9 2 5.9 6.2-.1 4.4-2.7 6.9-7.1 6.9z" fill="#fff"/><path d="m316.5 104.3c4 0 5.8 2 5.8 5.9h-1.9c0-2.7-1.2-4.2-3.9-4.2-2.6 0-4.1 1.7-4.1 3.9 0 6.4 10.4 2.9 10.4 10.5 0 4.2-2.6 6.3-6.5 6.3-4.1 0-6.3-2.1-6.3-6.4v-.6h1.9v.8c0 2.8 1.4 4.6 4.3 4.6 2.7 0 4.6-1.4 4.6-4.4 0-6.4-10.4-2.7-10.4-10.5.2-3.6 2.4-5.9 6.1-5.9m0-1c-4.1 0-6.9 2.7-6.9 6.7 0 4.8 3.5 5.9 6.3 6.9 2.6.9 4.1 1.5 4.1 3.7s-1.2 3.4-3.6 3.4c-2.2 0-3.3-1.2-3.3-3.6v-.8-1h-1-1.9-1v1 .6c0 4.8 2.6 7.4 7.3 7.4s7.5-2.7 7.5-7.3-3.4-5.8-6.2-6.7c-2.7-.9-4.2-1.5-4.2-3.8 0-1.4.8-2.9 3.1-2.9 1.3 0 2.9.4 2.9 3.3v1h1 1.9 1v-1c-.1-4.5-2.5-6.9-7-6.9z" fill="#4d4d4d"/><path d="m329 126.7v-19.9h-5.5v-2.7h14v2.7h-5.6v19.9z" fill="#fff"/><path d="m337 104.6v1.6h-5.5v19.9h-1.9v-19.9h-5.6v-1.6zm1-1h-1-13-1v1 1.6 1h1 4.6v18.9 1h1 1.9 1v-1-18.9h4.6 1v-1-1.6-1z" fill="#4d4d4d"/><path d="m338.4 126.7v-22.6h11.6v2.7h-8.7v6.8h8.2v2.6h-8.2v7.8h9v2.7z" fill="#fff"/><path d="m349.5 104.6v1.6h-8.7v7.8h8.2v1.6h-8.2v8.8h9v1.6h-10.9v-21.5h10.6m1-.9h-1-10.7-1v1 21.5 1h1 10.9 1v-1-1.6-1h-1-8v-6.8h7.2 1v-1-1.6-1h-1-7.2v-5.9h7.7 1v-1-1.6-1z" fill="#4d4d4d"/><path d="m366.9 126.7v-16.9l-4.7 16.9h-2.6l-4.8-16.9v16.9h-2.9v-22.6h4.2l4.9 17.9 4.8-17.9h4.1v22.6z" fill="#fff"/><path d="m369.4 104.6v21.5h-1.9v-19.7h-.1l-5.6 19.7h-1.8l-5.6-19.7h-.1v19.7h-1.9v-21.5h3.3l5.2 19.1h.1l5.2-19.1zm.9-1h-1-3.2-.8l-.2.7-4.3 15.7-4.3-15.7-.2-.7h-.8-3.3-1v1 21.5 1h1 1.9 1v-1-12.8l3.7 13 .2.7h.8 1.8.8l.2-.7 3.7-13v12.8 1h1 1.9 1v-1-21.5-1z" fill="#4d4d4d"/><path d="m5.1 93.4h366v4h-366z" fill="#fff" stroke="#4d4d4d" stroke-miterlimit="10"/></svg>