<svg enable-background="new 0 0 1382.4 295.5" height="295.5" viewBox="0 0 1382.4 295.5" width="1382.4" xmlns="http://www.w3.org/2000/svg"><g fill="#fff"><g opacity=".22"><path d="m1390.6 13c-44.5-.3-143.9 36.9-285.9 121.7-56.2 33.6-112 50-165.8 48.9-90.9-1.9-160.3-52.5-206.2-86-8.6-6.2-15.4-2.5-22.5-7.2l-13.1-8.9c-38.2-26.4-96-66.3-190.7-71.2-76.2-4-165 15.5-264.2 57.8-122.4 52.3-210.2 72.9-254 59.7l-4.4 2.9c47.9 14.5 136.7-5.8 263.9-60.1 97.4-41.6 184.1-60.7 257.8-56.8 91 4.7 145.3 42.2 184.9 69.6l13.1 9c7 4.7 15 10.5 23.6 16.7 46.8 34.1 116.3 76 211.4 78 56.6 1.2 114.6-15.8 172.5-50.3 140-83.5 236.5-120.6 279.5-120.3z"/><path d="m1390.9 17.9c-44.4-.2-143.6 36.4-285.9 115.3-10 5.6-20.7 10.9-32.5 16.2-46.5 20.8-92.8 30.3-137.6 28.3-86.5-3.9-154.5-50-199.4-80.4-10.5-7.1-18.4-3.6-26.7-8.7-4.9-3-10-6.2-15.4-9.6-29.5-18.6-66.2-41.7-117.7-55.2-91-23.7-203.4-8.3-334.1 45.8-122.9 50.8-208.1 69.4-253.2 55.3l-4.2 2.7c48.3 15.1 136.6-3.6 262.3-55.6 128-53 237.5-68.3 325.3-45.4 50.2 13.1 86.4 35.9 115.5 54.2 5.4 3.4 10.6 6.7 15.5 9.6 8.2 5 17.3 11.1 27.7 18.2 45.7 31 113.7 68.2 203.6 72.2 47.1 2.1 95.4-7.7 143.5-29.2 12-5.4 22.9-10.7 33.1-16.4 140.3-77.9 237-114.3 280-114.1z"/><path d="m1391.1 22.8c-44.3-.1-143.4 35.8-285.9 108.9-9.4 4.8-19.5 9.4-32.8 14.9-45.8 18.8-91.5 27.3-135.7 25.2-85.2-4-150.8-45.3-198.8-75.5-12.1-7.6-21.3-4.5-30.9-9.7-5.6-3.1-11.5-6.5-17.7-10.1-29.9-17.2-67.2-38.7-117-50.8-40.7-9.9-86.8-12.2-137-6.7-59.4 6.5-125 24-194.8 52-121.4 48.6-206.2 65.7-252.2 50.8l-4 2.5c48.9 15.9 136.7-1.3 260.8-51 127.6-51.1 236.6-66.2 324-44.9 48.6 11.9 85.3 33 114.9 50 6.3 3.6 12.2 7 17.8 10.1 9.4 5.2 18.6 2 30.6 9.6 48.7 30.6 115.4 72.6 203.7 76.7 46.2 2.2 93.7-6.6 141-26 13.4-5.5 23.7-10.2 33.3-15.1 140.7-72.2 237.5-107.9 280.7-107.9z"/><path d="m1391.4 27.7c-44.2 0-143.2 35.3-285.9 102.5-11.4 5.4-23 9.8-33 13.5-45.1 16.9-90 24.4-133.6 22.2-84.1-4.1-150.1-42.7-198.3-70.8-13-7.6-24.1-5.1-34.9-10.5-6.4-3.2-13-6.7-20-10.4-30.3-15.9-68.1-35.7-116.3-46.7-61.4-14-168.5-17.5-329.6 44.8-120 46.4-204.5 62-251.2 46.4l-3.8 2.2c50.2 16.8 134.9 1.6 259.2-46.5 158.5-61.3 262.9-58 322.6-44.4 47 10.7 84.3 30.3 114.3 46 7.1 3.7 13.7 7.2 20.2 10.4 10.6 5.3 21.1 2.4 34.6 10.3 48.9 28.6 115.9 67.7 202.6 71.9 45.3 2.2 91.9-5.5 138.4-22.9 10.2-3.8 21.9-8.3 33.5-13.8 141.1-66.4 238.1-101.6 281.3-101.6z"/><path d="m1391.6 32.6c-44.1.1-143 34.7-285.9 96.1-11 4.7-22.2 8.5-33 12.2l-.2.1c-148.9 50.4-257.5-8.4-329.4-47.3-14.4-7.8-26.9-5.5-38.9-10.9-7.1-3.2-14.5-6.7-22.3-10.5-32.3-15.5-69-33-115.6-42.7-39.5-8.3-85.2-9.6-135.8-3.9-59.1 6.7-123.6 22.9-191.7 48.2-118.5 44.1-202.7 58.2-250.3 41.8l-3.5 2c50.7 17.4 135 3.7 257.6-42 158.1-58.9 261.9-56.4 321.2-44 45.6 9.6 81.9 26.9 113.8 42.2 7.8 3.7 15.2 7.3 22.4 10.5 11.9 5.4 24.2 3 38.5 10.8 73.4 39.8 184.2 99.7 337.5 47.8l.2-.1c11-3.7 22.3-7.6 33.5-12.4 141.5-60.7 238.7-95.2 281.9-95.4z"/><path d="m1391.9 37.5c-44 .3-142.7 34.2-285.9 89.7-9.9 3.8-20.2 6.9-30.1 9.9l-3.4 1c-146.2 44.2-250.7-8-327-46.2-15.8-7.9-29.6-5.7-42.8-11.2-7.8-3.2-15.9-6.7-24.4-10.4-32.7-14.2-69.9-30.3-115.1-39-49.3-9.3-157-16.2-325.2 43.9-118.8 42.5-200.4 54.7-249.4 37.5l-3.3 1.8c51.3 18 135 5.8 256-37.5 166-59.4 271.7-52.7 319.8-43.5 44.4 8.5 81.1 24.5 113.5 38.5 8.5 3.7 16.6 7.2 24.5 10.4 13.1 5.3 26.7 3.1 42.5 11 37.1 18.6 83.3 41.7 138.5 54.3 65.1 14.9 129 12.4 195.4-7.7l3.4-1c10-3 20.4-6.2 30.6-10.1 142-55 239.3-88.9 282.5-89.1z"/><path d="m1392.2 42.4c-43.9.4-142.4 33.6-286 83.3-9.3 3.2-18.9 5.7-28.2 8.2l-5.6 1.5c-143.3 38.2-248-10.1-324.4-45.3-17.3-8-32.4-5.8-46.9-11.2-8.5-3.1-17.1-6.5-26.2-10.1-33.2-13-70.8-27.8-114.9-35.4-48.7-8.4-155.4-14-323.1 43.3-117.4 40.2-198.7 50.9-248.5 33l-3 1.6c51.8 18.7 135.1 7.9 254.4-33 165.8-56.7 270.7-51.3 318.4-43 43.3 7.5 80.6 22.1 113.5 35.1 9.1 3.6 17.8 7 26.3 10.1 14.3 5.3 29.3 3.1 46.5 11 37.3 17.2 83.8 38.7 138.4 50.6 64.2 14 126.9 12.4 191.8-4.9 0 0 5.5-1.5 5.5-1.5 9.4-2.5 19.2-5 28.7-8.3 142.7-49.4 240.1-82.5 283.4-82.9z"/><path d="m1392.4 47.3c-43.7.5-142 33-286 76.9-8.8 2.7-17.9 4.7-26.8 6.7l-7.2 1.6c-140.2 32.4-245.1-12.1-321.6-44.5-18.7-7.9-35.2-5.8-51-11-9-3-18.1-6.2-27.7-9.6-33.7-11.9-72-25.5-115-32.1-81.8-12.6-198.7 3-320.9 42.8-116 37.8-197 47.1-247.6 28.5l-2.7 1.4c52.4 19.2 135.1 9.9 252.8-28.5 121-39.5 236.6-55 317-42.5 42.3 6.5 80.3 20 113.7 31.8 9.6 3.4 18.7 6.6 27.8 9.7 15.6 5.2 32 3 50.6 10.9 77.5 32.8 183.6 77.8 326.5 44.9l7.1-1.6c9-2 18.3-4.1 27.3-6.8 143.1-43.6 240.5-76.1 283.7-76.6z"/><path d="m1392.7 52.2c-43.5.6-141.6 32.4-286.1 70.5-8.4 2.2-17.3 3.9-25.8 5.5l-8.4 1.6c-136.9 26.7-242-14.1-318.7-43.9-20.3-7.9-38.3-5.7-55.4-10.8-9.4-2.8-18.8-5.8-28.7-8.9-36.1-11.4-73.4-23.3-115.6-29-36.5-4.9-82.6-4.4-133.3 1.7-58.2 6.9-120.6 20.6-185.4 40.6-114.6 35.4-195.3 43.3-246.8 24l-2.4 1.3c52.9 19.8 135.1 12 251.2-24 172-53.2 278-47.1 315.5-42.1 41.6 5.6 78.6 17.4 114.5 28.7 9.9 3.2 19.3 6.1 28.8 9 16.9 5.1 34.8 2.8 55 10.7 77.5 30.1 183.6 71.3 322.6 44.2l8.4-1.6c8.7-1.6 17.6-3.3 26.3-5.6 143.8-37.9 241.1-69.7 284.3-70.3z"/><path d="m1393 57.1c-43.3.7-141 31.8-286.2 64.2-8.2 1.8-16.7 3.1-25 4.3-3.1.5-6.4.9-9.5 1.4-59.1 9.4-117.3 8.3-178-3.3-52.4-10-97.5-26-137.3-40.1-22-7.8-41.6-5.5-60.1-10.5-9.6-2.6-19-5.2-29-8-37-10.5-75.3-21.3-116.9-26-35.8-4.1-81.7-3.1-132.7 3.1-57.9 7-119.8 20-183.9 38.7-113.2 33.1-193.6 39.5-245.8 19.6l-2.1 1.1c53.4 20.4 135.1 14 249.7-19.5 119.6-34.9 237-50.5 314.1-41.6 41.1 4.7 79.2 15.5 116 25.9 9.6 2.7 19.4 5.5 29 8.1 18.3 4.9 37.9 2.6 59.8 10.4 40 14.2 85.3 30.2 138.1 40.3 61.5 11.7 120.4 12.8 180.3 3.3 3.1-.5 6.3-1 9.4-1.4 8.4-1.2 17-2.5 25.4-4.4 144.6-32.2 241.9-63.3 284.9-64z"/><path d="m1393.3 62c-42.9.8-140.1 31.2-286.3 57.8-8 1.5-16.3 2.4-24.4 3.3-3.4.4-6.9.8-10.4 1.2-57.3 7.1-114.3 5.2-174.1-5.8-51.8-9.5-97.1-24.1-137.1-37-24-7.7-45.4-5.3-65.5-10.1-9.4-2.2-18.9-4.6-28.2-6.9-38.3-9.7-77.9-19.6-119.3-23.5-35.1-3.3-80.8-1.8-132.1 4.5-57.5 7-118.9 19.4-182.4 36.8-111.9 30.7-192 35.6-245 15.1l-1.7.9c25.7 9.9 58.3 14 97.1 12.2 41.9-2 92.8-11.2 151-27.1 120-33 236.9-48.4 312.6-41.3 41 3.9 80.4 13.7 118.6 23.2 9.3 2.3 18.8 4.7 28.2 6.9 19.9 4.8 41.3 2.4 65.2 10.1 40.1 12.9 85.6 27.6 137.7 37.1 60.5 11.1 118 13 175.9 5.9 3.4-.4 6.9-.8 10.3-1.2 8.2-.9 16.6-1.8 24.7-3.3 145.8-26.5 242.7-56.9 285.4-57.7z"/><path d="m1393.5 66.9c-42.2.9-138.7 30.6-286.4 51.5-7.8 1.1-16 1.7-23.9 2.3-3.6.3-7.4.5-11.1.9-124.5 10.9-225.3-18.6-306.3-42.2-26.2-7.7-49.8-5.2-71.7-9.9l-25.8-5.6c-40.2-8.8-81.7-17.9-123.3-21-34.4-2.5-79.9-.5-131.5 5.9-56.2 6.9-118.7 19-180.9 34.9-110.6 28.2-190.4 31.7-244.1 10.6l-1.4.7c26.1 10.3 59.1 14.8 98 13.5 41.5-1.4 91.5-9.5 148.4-24 120.9-30.9 237.2-46.1 311-40.7 41.3 3 82.7 12.1 122.7 20.8l25.8 5.6c21.8 4.6 45.3 2.2 71.5 9.8 40.2 11.7 85.7 25 136.9 34 59.3 10.4 115.2 13.2 170.9 8.3 3.7-.3 7.4-.6 11-.9 8-.6 16.2-1.2 24.2-2.3 147.5-20.8 243.7-50.5 285.9-51.4z"/><path d="m1393.8 71.8c-33 .8-130 29.4-286.6 45.1-7.8.8-15.8 1.1-23.6 1.4-3.8.1-7.8.3-11.7.5-119.4 6.1-219.4-20.3-299.9-41.5-29-7.7-55.2-5.2-79.3-9.7l-21-4c-44.9-8.5-87.2-16.5-129.7-18.7-33.5-1.7-78.8.8-130.9 7.3-55.5 6.9-117.5 18.3-179.5 32.9-55.5 13.1-104.3 20.1-145.2 20.8-38.8.7-71.7-4.3-97.9-14.7l-1 .5c26.5 10.6 59.8 15.6 99 14.9 41.1-.7 90.2-7.8 145.9-20.9 120.5-28.4 239.1-43.8 309.5-40.2 42.2 2.2 84.5 10.2 129.2 18.7l21.1 4c24 4.5 50.2 2 79.1 9.6 80.6 21.3 181 47.7 300.9 41.6 3.9-.2 7.8-.3 11.6-.5 7.8-.3 16-.6 23.8-1.4 156.5-15.7 253.4-44.3 286.3-45.1z"/><path d="m1394.1 76.7c-29.2.7-118.8 28.7-286.8 38.8-7.7.5-15.7.5-23.4.5-4 0-8 0-12.1.1-113.4 1.7-212.1-21.7-291.4-40.6-32.5-7.7-62-5.4-88.9-9.7l-12.6-2c-49.1-8-95.5-15.5-139.7-16.8-32.6-.9-77.6 2.1-130.4 8.8-54.5 6.9-116 17.6-178 31-54.2 11.7-102.3 17.7-142.8 17.7-19.8 0-38.2-1.3-54.8-4-16.3-2.7-31.3-6.7-44.5-12.1l-.7.3c13.3 5.4 28.5 9.5 44.9 12.2 16.7 2.7 35.3 4.1 55.2 4.1 40.7-.1 88.9-6.1 143.3-17.8 62-13.3 123.5-24 177.9-31 52.6-6.7 97.6-9.7 130-8.8 44.1 1.3 90.4 8.8 139.5 16.8l12.6 2c26.8 4.3 56.3 2 88.7 9.7 79.4 18.9 178.2 42.4 292 40.6 4-.1 8.1-.1 12.1-.1 7.8 0 15.8 0 23.6-.5 168-10.1 257.5-38 286.7-38.8z"/><path d="m1394.4 81.6c-10.5.3-25.3 35.5-39.8 35.9-54.5 1.6-138.2-5.6-247.3-3.5-7.7.2-15.3-.1-23.4-.4-4.1-.1-8.2-.3-12.4-.4-47.4-1-96.5-5.6-150.2-14.2-46.8-7.4-90.8-16.9-129.6-25.2-37.2-8-71.2-5.8-101.6-10.1-26.5-3.7-53.8-7.5-80.2-10.3-28.9-3.1-52.3-4.6-73.7-4.8-31.4-.2-76.3 3.3-129.8 10.2-52.8 6.8-113.8 16.8-176.7 29-26.6 5.2-51.9 9-75.3 11.4-23.2 2.4-45.2 3.5-65.2 3.2-19.9-.3-38.5-1.9-55.3-4.8-16.7-2.9-32-7.2-45.5-12.7l-.4.2c13.6 5.6 29 9.9 45.7 12.8 16.8 2.9 35.5 4.6 55.4 4.8 20.1.3 42-.8 65.3-3.2 23.4-2.4 48.7-6.3 75.4-11.5 62.9-12 124-22 176.7-28.8 53.5-6.9 98.4-10.4 129.7-10.2 21.4.1 44.8 1.6 73.6 4.7 26.4 2.8 53.7 6.6 80.2 10.3 30.4 4.2 64.3 2.1 101.5 10 38.8 8.3 82.9 17.7 129.6 25.2 53.7 8.6 102.9 13.2 150.3 14.2 4.2.1 8.3.2 12.4.4 7.7.3 15.7.6 23.5.4 109.2-2.1 192.8 5.1 247.3 3.5 14.5-.4 29.3-35.6 39.8-35.9z"/><path d="m1394.7 86.2c-33.4 1-138.7 29.2-287.4 26.1-7.8-.2-15.4-.7-23.5-1.3-4.1-.3-8.3-.6-12.5-.8-97.6-5.6-185.3-22.6-262.6-37.5-43.9-8.5-84.2-6.8-119.7-11-52.6-6.2-108-12.2-155.7-11.3-72.7 1.3-205.8 21.8-304.7 38.8-51.8 8.9-98.1 12.8-137.8 11.6-40-1.2-74.3-7.6-101.9-19l-.7.3c27.8 11.5 62.3 17.9 102.6 19.1 39.8 1.2 86.4-2.7 138.3-11.7 98.8-17 231.8-37.4 304.4-38.7 47.3-.8 102.6 5.2 155.2 11.4 35.4 4.2 75.7 2.5 119.5 11 77.4 15 165.2 31.9 262.9 37.6 4.2.2 8.4.5 12.5.8 8.1.6 15.8 1.1 23.6 1.3 148.8 3.1 254-25.1 287.5-26.1z"/><path d="m1394.9 90.9c-85.1 2.7-184.2 26.1-287.6 19.8-7.9-.5-15.7-1.3-24-2.2-4-.4-8.1-.8-12.2-1.2-85.3-8.1-165.1-22.1-235.4-34.5-56.8-10-104.6-9-147.8-13.2-50.3-4.9-108.4-9.6-157.5-7.5-62.4 2.7-176.2 19.5-296.6 37.4l-6.4.9c-102.9 15.2-183 11.3-238.2-11.8l-1.1.5c55.6 23.2 136.3 27.3 239.8 11.9l6.4-.9c120.4-17.8 234.1-34.7 296.2-37.3 48.8-2.1 106.8 2.6 157 7.5 43.1 4.2 90.9 3.1 147.6 13.1 70.4 12.4 150.3 26.5 235.7 34.5 4.1.4 8.2.8 12.2 1.2 8.3.9 16.1 1.7 24.1 2.2 103.5 6.3 202.6-17.1 287.9-19.8z"/><path d="m1395.2 95.5c-57.4 2-156.7 26.7-287.7 13.5-8.3-.8-16.4-2-25-3.2l-11.4-1.6c-64.9-8.5-125.7-18.6-184.5-28.3-77.4-12.6-143-13.9-200-18.3-68.2-5.3-118.8-6.5-159.2-3.7-39 2.7-98.5 10.8-167.4 20.2-43 5.9-87.4 11.9-133.7 17.6-101.8 12.5-181.5 7-236.8-16.3l-1.4.7c55.9 23.6 136.2 29.1 238.8 16.5 46.3-5.7 90.8-11.8 133.8-17.6 68.8-9.4 128.2-17.5 167.1-20.1 40.2-2.8 90.6-1.6 158.6 3.7 56.8 4.4 122.3 5.7 199.5 18.5 58.8 9.7 119.7 19.7 184.7 28.3l11.4 1.6c8.6 1.2 16.8 2.3 25.2 3.2 131.3 13.2 230.9-11.5 288.4-13.5z"/><path d="m1395.4 100.2c-56.8 2.1-155.7 25.8-287.9 7.2-9-1.3-18-2.8-27.4-4.4l-9.3-1.6-45.9-7.8c-128-21.8-247.7-32.6-339.6-38.1-65.3-3.9-119.5-3.9-161 .1-26.4 2.5-62.8 7.5-104.9 13.3-55.7 7.7-125 17.2-194.3 24-100.9 9.8-180.1 2.9-235.4-20.7l-1.7.8c56 23.8 135.9 30.9 237.8 21 69.4-6.7 138.8-16.3 194.5-24 42-5.8 78.3-10.8 104.6-13.3 41.2-3.9 95.1-3.9 160.1-.1 91.5 5.5 211.1 16.3 339 38l45.9 7.8 9.2 1.6c9.5 1.6 18.5 3.2 27.6 4.5 132.6 18.7 231.8-5 288.9-7.1z"/><path d="m1395.7 104.9c-56.4 2.2-155 24.9-287.9.9-11.5-2.1-23.2-4.5-35.4-7l-1.5-.3c-152.6-31.5-285.5-40.8-386.6-45-64-2.8-120.3-1.5-163 3.7-17.8 2.2-40.2 5.5-66.1 9.3-61.9 9.1-146.7 21.6-231 27.5-100.2 7-179-1.4-234-25.1l-2.2 1c55.8 24 135.4 32.6 236.7 25.5 84.6-5.9 169.5-18.4 231.5-27.5 25.9-3.8 48.2-7.1 66-9.3 42.3-5.2 98.2-6.5 161.7-3.8 100.8 4.2 233.3 13.4 385.6 44.9l1.5.3c12.3 2.5 24 4.9 35.6 7 133.5 24.1 232.7 1.4 289.4-.8z"/><path d="m1395.9 109.5c-57.1 2.3-168.9 24.1-325.2-14.1-242-59.2-448.3-52.1-552.4-36.4-11.2 1.7-24.1 3.8-39.1 6.2-124.4 20.3-356 58-488.6.5l-2.6 1.2c134.3 58.2 367.3 20.3 492.5-.1 14.9-2.4 27.8-4.5 39-6.2 103.4-15.7 308.5-22.7 549.5 36.3 160.4 39.2 275.2 16.4 327.3 14.3z"/></g><g opacity=".38"><path d="m-7.2 162.6c3.3-.6 334.9-63.2 783.8 32.8 75.7 16.2 142.5 29.7 204.3 41.2 59.4 11.1 112.5 20.1 162.2 27.5 46.8 7 89.8 12.4 131.3 16.6 37.8 3.8 74.3 6.6 111.6 8.4l.1-.2c-37.2-1.9-73.7-4.6-111.4-8.4-41.5-4.2-84.4-9.6-131.2-16.6-49.7-7.4-102.8-16.4-162.2-27.5-61.8-11.6-128.6-25-204.3-41.2-54.2-11.6-109.4-21.5-164.2-29.3-49.8-7.2-100.3-12.8-150.1-16.8-83.9-6.8-167.5-9-248.4-6.7-31.8.9-63.2 2.5-93.5 4.8-24.2 1.8-47.7 4.1-69.7 6.7-37.6 4.5-58.5 8.5-58.7 8.5z"/><path d="m-7.1 165.6c3.2-.8 346.8-69.8 792 27.1 74.8 16.4 140.4 30 200.6 41.5 58.8 11.3 111.1 20.4 159.7 27.8 89.2 13.6 165.8 21.3 240.8 24.3l.2-.2c-74.9-3-151.4-10.7-240.5-24.3-48.6-7.4-100.8-16.5-159.6-27.8-60.1-11.4-125.7-25-200.5-41.4-52.9-11.5-107.1-21.2-161.2-28.9-49.2-7-99.4-12.4-149.2-16.2-84-6.3-168.4-8-250.9-5.1-32.5 1.2-64.8 3.1-96 5.7-25.1 2.1-49.5 4.6-72.6 7.6-41.9 5.3-63.4 9.8-63.6 9.8z"/><path d="m-7 168.6c3.4-.8 368.1-75.1 800.3 21.4 147.9 33 260.5 55.2 354.4 69.8 89.6 13.9 165.3 21.5 238.4 23.6l.1-.3c-72.9-2.2-148.5-9.7-237.9-23.6-93.9-14.6-206.5-36.8-354.3-69.8-98.4-22-201.3-36.9-305.8-44.2-84-5.9-169.2-7.1-253.4-3.4-75.7 3.3-136.5 10.1-174.2 15.1-40.6 5.6-65.5 10.6-68.4 11.2z"/><path d="m-6.9 171.7c3.6-.9 381.6-81.9 808.7 15.7 147.3 33.6 258 56 348.4 70.4 89.4 14.2 164.5 21.5 236.2 22.9l.1-.3c-139.8-2.7-298-28-583.7-93.2-95.8-21.9-197.2-36.4-301.6-43.3-84-5.5-170.1-6.1-255.8-1.7-77.5 4-140.5 11.4-179.7 16.9-43 6-69.3 11.4-73.5 12.4z"/><path d="m-6.8 174.7c3.8-.9 402.3-86.9 817 9.9 289.1 67.5 439.9 91.9 576.3 93.2l.1-.4c-136-1.3-286.5-25.6-575.2-93.1-93.2-21.8-193.2-36-297.3-42.3-84-5.1-170.9-5.1-258.3 0-79.3 4.6-144.5 12.7-185.2 18.7-45.3 6.6-73.3 12.5-78.4 13.7z"/><path d="m-6.7 177.7c1.7-.4 179.7-40.2 420-40.1 146.1 0 282.5 15 405.3 44.3 147.9 35.4 251.6 57.4 336.2 71.5 45.2 7.5 85.6 12.9 123.5 16.4 37.7 3.5 73.1 5.2 108.3 5.1v-.4c-132.7.1-275.7-23.3-566.7-92.9-123.2-29.5-260-44.4-406.6-44.5-52.7 0-106.8 1.9-160.8 5.8-43.8 3.1-87.8 7.5-130.6 13-82.9 10.7-129.5 21.4-129.9 21.5z"/><path d="m-6.6 180.7c1.9-.4 199-44.7 448.5-44.2 140.8.2 270.3 14.6 385.1 42.7 148.9 36.5 247.7 58 330.1 72.1 44.7 7.6 84.6 13 122 16.4 37.5 3.4 72.7 4.9 107.7 4.5l-.1-.5c-145 1.7-301.8-29.9-558.2-92.7-115.2-28.2-245.2-42.6-386.6-42.9-54.9-.1-111.7 2-168.8 6.2-46.4 3.4-93.3 8.2-139.2 14.3-75.7 10-129.2 20.9-141.9 24z"/><path d="m-6.5 183.7c2.1-.5 214.5-49.3 476.4-48.4 135.4.4 258.3 14.3 365.5 41.2 147.8 37.1 244.7 58.8 324 72.6 88.5 15.4 158.7 21.6 227.5 20.1l-.2-.6c-141.5 3.1-290-27.4-549.6-92.6-107.6-27-231.1-40.9-367.2-41.4-56.9-.2-116.2 2-176.4 6.5-48.9 3.7-98.6 8.9-147.6 15.5-96.1 13-153.5 26.4-154.1 26.5z"/><path d="m-6.3 186.7c2.3-.5 234.4-53.9 503.6-52.7 130 .6 246.5 14 346.5 39.7 148.5 38.2 240.6 59.4 317.9 73.2 87.7 15.6 157.2 21.6 225.4 19.4l-.3-.6c-137.6 4.4-284.1-26.2-541.1-92.4-100.5-25.8-217.7-39.3-348.4-39.9-58.7-.3-120.4 2.1-183.4 6.9-51.4 4-103.8 9.6-155.9 16.8-86 11.9-149.2 25-166.3 29.1z"/><path d="m-6.2 189.7c2.5-.6 254.6-58.7 530.3-57 124.5.8 235 13.6 328.2 38.3 259.8 68.6 398.8 98.3 535.1 92.4l-.5-.7c-135 5.8-273.4-23.8-532.5-92.2-93.8-24.8-204.8-37.7-330.2-38.5-60.2-.4-124.1 2.1-189.9 7.3-53.7 4.3-108.8 10.4-163.9 18.1-109.6 15.6-178 31.7-178.6 31.9z"/><path d="m-6.1 192.8c2.7-.6 270.6-63.6 556.3-61.4 119.2.9 223.6 13.3 310.5 36.9 122.9 33.3 221.9 58.7 305.6 74.3 85.9 16 154.1 21.5 221.3 17.9l-.7-.7c-132.8 7.1-263.2-21.3-523.9-92.1-87.4-23.7-192.6-36.2-312.7-37.2-61.6-.5-127.5 2.1-195.9 7.7-55.9 4.5-113.6 11.1-171.8 19.5-115.3 16.7-190.1 34.4-190.9 34.5z"/><path d="m-6 195.8c2.9-.7 291.3-68.5 581.6-65.8 113.9 1.1 212.6 13 293.4 35.6 124.9 34.8 218.5 59.5 299.5 74.9 84.9 16.2 152.5 21.5 219.2 17.2l-.8-.8c-130.1 8.3-258.5-20.3-515.4-91.9-81.5-22.7-181-34.8-295.8-35.9-291.7-2.7-581.2 65.3-584 66z"/><path d="m-5.9 198.8c3.1-.7 312.3-73.5 606.3-70.2 108.6 1.2 201.8 12.7 277 34.3 126.3 36.2 214.8 60.2 293.3 75.5 83.9 16.4 150.9 21.4 217.2 16.5l-1.1-.8c-133.7 10-263.1-21.8-506.8-91.7-75.8-21.8-169.9-33.4-279.5-34.6-63.7-.7-133.2 2.1-206.5 8.4-60 5.1-122.9 12.6-186.9 22.1-126.4 18.8-211.9 39-215.5 39.9z"/><path d="m-5.8 201.8c3.8-.9 95.7-22.6 227.3-42.6 66.7-10.1 131.8-18 193.4-23.4 75.2-6.6 145.7-9.5 209.7-8.7 103.5 1.3 191.4 12.4 261.2 33.1 124.4 36.7 211.2 60.9 287.2 76.1 82.9 16.5 149.2 21.4 215.2 15.7l-1.3-.8c-131.4 11.3-258.7-20.8-498.2-91.5-70.5-20.8-159.3-32.1-263.9-33.4-64.5-.8-135.5 2.1-211.2 8.8-61.9 5.4-127.2 13.3-194.1 23.5-132 20-224.1 41.8-227.9 42.7z"/><path d="m-5.7 204.8c4.1-1 102.7-24.3 239.7-45.4 69.5-10.7 137-19.1 200.4-24.8 77.3-6.9 149.2-10 213.7-9 98.4 1.4 181.2 12.2 246 31.9 125.2 38.1 207 61.6 281 76.7 81.8 16.7 147.6 21.3 213.2 15l-1.5-.9c-136.7 13.2-275.1-26.1-489.5-91.4-65.6-19.9-149.3-30.8-248.9-32.2-119.3-1.7-259.4 9.7-416.6 34-137.4 21.1-236.2 44.5-240.3 45.5z"/><path d="m-5.6 207.8c15.2-3.6 376.6-88.7 676.6-83.8 93.5 1.5 171.4 11.9 231.5 30.7 103.6 32.5 195.8 60.8 274.8 77.3 80.7 16.9 145.9 21.3 211.3 14.2l-1.7-.9c-135.2 14.5-264.3-23.2-480.9-91.2-60.9-19.1-139.9-29.6-234.7-31.1-120.1-2-263.8 10.1-427.2 35.7-140.2 22-241.6 45.8-252.7 48.4z"/><path d="m-5.5 210.8c16.1-3.8 398.3-93.9 698.8-88.5 88.7 1.6 162 11.6 217.6 29.6 213.5 69.2 341 107.6 477.9 91.4l-2-.9c-133.7 15.8-260.2-22.3-472.3-91.1-56.4-18.3-130.7-28.4-220.8-30-302.5-5.4-686.2 85-702.3 88.8z"/><path d="m-5.4 213.9c17-4 420.3-99.1 720.5-93.1 84.1 1.7 152.8 11.3 204.2 28.5 209 70 333.9 108.8 469.8 91.2l-2.3-1c-132.4 17.2-256.2-21.4-463.7-90.9-52.3-17.5-122.1-27.3-207.7-29-302.2-6-707 89.4-724.1 93.5z"/><path d="m-5.3 216.9c17.9-4.3 442.4-104.4 741.5-97.8 79.6 1.7 144 11 191.5 27.5 204.3 70.9 326.5 110.1 461.6 91.1l-2.5-1c-131.4 18.5-252.4-20.4-455-90.7-48.3-16.8-114-26.2-195.1-28-120.6-2.6-273.9 11.1-455.7 41-155.1 25.5-276.4 54-289.7 57.1z"/><path d="m-5.2 219.9c18.8-4.5 464.5-109.6 761.9-102.5 75.2 1.8 135.6 10.7 179.3 26.4 199.5 71.8 318.9 111.4 453.5 90.9l-2.8-1c-130.5 19.8-248.7-19.4-446.4-90.6-44.7-16.1-106.3-25.1-183.1-27-120.2-2.9-276.4 11.5-464.1 42.8-156.5 26.1-279 54.7-301.9 60.1z"/><path d="m-5 222.9c49.5-11.8 491.8-114.8 781.8-107.3 71 1.8 127.4 10.4 167.7 25.4 151.6 56.6 250.7 91.3 349.7 96.1 32.5 1.6 63.8-.2 95.6-5.4l-3.1-1.1c-30.5 5-60.5 6.7-91.5 5.2-96.9-4.7-195.4-39.2-346.2-95.6-41.2-15.4-98.9-24.1-171.7-26-119.6-3.1-278.4 11.9-472 44.6-161 27.3-290 57.4-314.2 63.2z"/><path d="m-4.9 225.9c51.8-12.3 514.1-120.1 801.1-112 67 1.9 119.7 10.1 156.6 24.5 146.9 57.1 243.2 92 341.3 96.6 32.6 1.5 64-.4 96-6l-3.3-1.1c-30.6 5.3-60.6 7.2-91.5 5.8-95.6-4.5-195.7-40.9-337.5-96-37.9-14.7-92-23.2-160.8-25.1-289.9-8.2-754 100-805.9 112.4z"/><path d="m-4.8 228.9c54.1-12.9 536.4-125.4 819.9-116.8 63 1.9 112.2 9.8 146.1 23.5 137.9 55.8 235.6 92.7 332.7 97.1 32.7 1.5 64.2-.7 96.4-6.7l-3.6-1.1c-30.7 5.7-60.7 7.8-91.7 6.4-94.7-4.3-191.7-41-328.8-96.5-34.9-14.1-85.5-22.3-150.4-24.2-286.3-8.6-770.5 104.4-824.8 117.4z"/><path d="m-4.7 232c56.4-13.4 558.8-130.8 838.2-121.7 59.3 1.9 105.1 9.5 136.1 22.6 133.1 56.2 227.6 93.4 324.2 97.6 32.8 1.4 64.5-1 96.8-7.3l-3.9-1.1c-30.9 6.1-60.9 8.4-91.8 7-94-4.1-187.7-41.1-320-96.9-32-13.5-79.3-21.4-140.6-23.4-116.3-3.8-282.1 13.1-492.8 50.1-169.3 29.7-311.1 62.6-350.5 72z"/><path d="m-4.6 235c58.7-14 581.3-136.1 855.9-126.6 55.7 1.9 98.3 9.3 126.6 21.8 124.2 54.9 219.5 94.1 315.5 98.2 33 1.4 64.8-1.2 97.4-8l-4.2-1.1c-31 6.5-61.2 9-92.1 7.7-93.2-4-187.7-42.9-311.1-97.4-29.3-12.9-73.4-20.5-131.3-22.5-114.8-4-282.6 13.5-498.8 51.9-172.9 30.6-321.1 65.1-362.4 74.9z"/><path d="m-4.5 238c99.5-23.7 609.3-141.3 873.2-131.5 52.3 1.9 91.8 9 117.6 20.9 119.2 55.2 211 94.7 306.8 98.7 33.1 1.4 65.2-1.5 98-8.7l-4.5-1.1c-31.2 6.9-61.4 9.6-92.3 8.3-92.7-3.9-187.6-44.8-302.1-97.9-26.8-12.4-68-19.7-122.4-21.8-113.1-4.2-282.8 13.9-504.4 53.8-176.7 31.9-331.4 67.9-374.6 78.2z"/><path d="m-4.3 241c103.3-24.6 631.5-146.6 889.9-136.4 48.9 1.9 85.6 8.7 109 20.1 110.4 53.8 202.5 95.3 298.2 99.2 33.3 1.4 65.6-1.7 98.7-9.4l-4.9-1.2c-31.3 7.3-61.6 10.2-92.6 8.9-92.4-3.8-183.5-44.9-293-98.3-24.4-11.9-62.8-19-114.1-21-261.9-10.3-792.5 112.3-896.2 136.9z"/></g></g></svg>